#!OML:ASF H:\LiuWeirdWalks\Patient Classification 1\Patient 1\Session 1\male.ASF
:FULLY-SPECIFIED
:DEGREES
678
root 2.52415 18.1267 23.1513 2.06271 5.34955 -12.5445
lowerback 11.3278 -0.776147 -8.06555
upperback 1.77692 -2.18399 -3.97074
thorax -4.34674 -0.974297 0.690195
lowerneck -20.9879 0.920411 6.13427
upperneck 21.4936 -2.5586 7.05901
head 10.4755 0.221244 1.13384
rclavicle 1.90833e-014 6.04305e-014
rhumerus -25.4482 -26.9111 -2.26644
rradius 43.7012
rwrist -24.0707
rhand -29.2976 -10.0516
rfingers 7.12502
rthumb -2.63911 -40.015
lclavicle 1.90833e-014 6.04305e-014
lhumerus -32.9759 36.8419 25.358
lradius 38.4076
lwrist 10.3468
lhand -20.5267 -2.4027
lfingers 7.12502
lthumb 5.83135 27.4971
rfemur -1.00031 -8.14474 24.7892
rtibia 49.0518
rfoot 22.3242 -23.277
rtoes 6.13638
lfemur -18.7362 1.15621 -1.23309
ltibia 28.4183
lfoot -6.74069 7.88377
ltoes -10.5332
679
root 2.53522 18.1304 23.2228 2.02512 5.42869 -12.4172
lowerback 11.3439 -0.80768 -8.42835
upperback 1.78365 -2.27735 -4.13259
thorax -4.33479 -1.01559 0.734207
lowerneck -20.8022 0.902211 6.13029
upperneck 21.4278 -2.64259 7.386
head 10.4273 0.215615 1.2369
rclavicle -1.35174e-014 -5.08889e-014
rhumerus -25.1373 -26.9323 -2.21003
rradius 43.4021
rwrist -23.9007
rhand -29.1392 -9.64552
rfingers 7.12502
rthumb -2.48614 -39.6108
lclavicle -1.35174e-014 -5.08889e-014
lhumerus -33.2677 36.8673 25.1546
lradius 38.3995
lwrist 10.4268
lhand -20.541 -2.39369
lfingers 7.12502
lthumb 5.81748 27.5064
rfemur -1.24682 -8.07457 24.8169
rtibia 49.5319
rfoot 22.1286 -23.9459
rtoes 6.48767
lfemur -18.3696 1.10566 -1.39381
ltibia 28.2807
lfoot -6.95194 7.84949
ltoes -10.5257
680
root 2.5451 18.133 23.2934 1.98576 5.5125 -12.2754
lowerback 11.3623 -0.837831 -8.78756
upperback 1.80543 -2.36784 -4.30494
thorax -4.30839 -1.0564 0.764236
lowerneck -20.6491 0.885914 6.13002
upperneck 21.3441 -2.72308 7.70132
head 10.3788 0.209899 1.33552
rclavicle 2.22639e-014 7.63333e-014
rhumerus -24.8673 -26.9463 -2.13604
rradius 43.1498
rwrist -23.743
rhand -29.0007 -9.29397
rfingers 7.12502
rthumb -2.35243 -39.2607
lclavicle 2.22639e-014 7.63333e-014
lhumerus -33.5402 36.9018 24.9874
lradius 38.3948
lwrist 10.502
lhand -20.5522 -2.38765
lfingers 7.12502
lthumb 5.80671 27.5128
rfemur -1.49023 -8.0225 24.8424
rtibia 50.0074
rfoot 21.5784 -24.6173
rtoes 6.7259
lfemur -18.0141 1.03306 -1.5669
ltibia 28.1593
lfoot -7.16179 7.83394
ltoes -10.5276
681
root 2.55383 18.1345 23.363 1.94527 5.60503 -12.1266
lowerback 11.3857 -0.868837 -9.13575
upperback 1.84267 -2.45754 -4.48478
thorax -4.26859 -1.0979 0.779651
lowerneck -20.5379 0.872537 6.13568
upperneck 21.2493 -2.80004 8.00134
head 10.3339 0.204465 1.42824
rclavicle -2.06736e-014 -3.49861e-014
rhumerus -24.6446 -26.9405 -2.04538
rradius 42.9628
rwrist -23.6204
rhand -28.8978 -9.03761
rfingers 7.12502
rthumb -2.25296 -39.0055
lclavicle -2.06736e-014 -3.49861e-014
lhumerus -33.7971 36.9402 24.861
lradius 38.3991
lwrist 10.5812
lhand -20.5668 -2.37971
lfingers 7.12502
lthumb 5.79263 27.5211
rfemur -1.73362 -7.99587 24.8731
rtibia 50.4731
rfoot 20.6672 -25.2806
rtoes 6.89385
lfemur -17.6754 0.937893 -1.74478
ltibia 28.058
lfoot -7.37066 7.83613
ltoes -10.5438
682
root 2.56138 18.1349 23.4315 1.90492 5.70836 -11.9757
lowerback 11.4227 -0.907303 -9.47876
upperback 1.88005 -2.55822 -4.66765
thorax -4.23521 -1.14469 0.790366
lowerneck -20.4308 0.867245 6.15298
upperneck 21.1522 -2.86441 8.28385
head 10.2886 0.203238 1.51451
rclavicle 8.74653e-015 2.22639e-014
rhumerus -24.4292 -26.9072 -1.95434
rradius 42.8001
rwrist -23.5252
rhand -28.8305 -8.89409
rfingers 7.12502
rthumb -2.18799 -38.8626
lclavicle 8.74653e-015 2.22639e-014
lhumerus -34.0806 36.9565 24.7473
lradius 38.4195
lwrist 10.6835
lhand -20.5903 -2.35788
lfingers 7.12502
lthumb 5.76994 27.5436
rfemur -1.98069 -7.99631 24.9142
rtibia 50.9221
rfoot 19.4233 -25.9367
rtoes 7.03395
lfemur -17.3582 0.823559 -1.92247
ltibia 27.9801
lfoot -7.58053 7.85271
ltoes -10.5768
683
root 2.56767 18.1344 23.4988 1.86505 5.82266 -11.8314
lowerback 11.4803 -0.957493 -9.8171
upperback 1.90635 -2.67759 -4.84792
thorax -4.223 -1.19962 0.803986
lowerneck -20.3004 0.872737 6.183
upperneck 21.0574 -2.91005 8.54782
head 10.2391 0.208559 1.5945
rclavicle -4.77083e-015 -4.13472e-014
rhumerus -24.1868 -26.8492 -1.87389
rradius 42.6248
rwrist -23.4509
rhand -28.7932 -8.83965
rfingers 7.12502
rthumb -2.15194 -38.8085
lclavicle -4.77083e-015 -4.13472e-014
lhumerus -34.4208 36.9358 24.6266
lradius 38.459
lwrist 10.8181
lhand -20.6208 -2.32292
lfingers 7.12502
lthumb 5.74043 27.5793
rfemur -2.23414 -8.01947 24.9756
rtibia 51.345
rfoot 17.9029 -26.6001
rtoes 7.17814
lfemur -17.0658 0.69578 -2.09017
ltibia 27.9288
lfoot -7.79388 7.87877
ltoes -10.6237
684
root 2.57262 18.1331 23.5651 1.82653 5.94607 -11.6975
lowerback 11.5606 -1.02004 -10.153
upperback 1.91472 -2.81802 -5.02196
thorax -4.23985 -1.26317 0.826123
lowerneck -20.1301 0.887697 6.2188
upperneck 20.9705 -2.93638 8.79745
head 10.1844 0.220468 1.67085
rclavicle 1.82882e-014 1.59028e-014
rhumerus -23.8941 -26.7769 -1.80696
rradius 42.405
rwrist -23.387
rhand -28.7849 -8.89017
rfingers 7.12502
rthumb -2.14394 -38.8591
lclavicle 1.82882e-014 1.59028e-014
lhumerus -34.8269 36.8877 24.4872
lradius 38.5064
lwrist 10.9768
lhand -20.6545 -2.27474
lfingers 7.12502
lthumb 5.70791 27.6284
rfemur -2.49575 -8.05625 25.0616
rtibia 51.731
rfoot 16.1775 -27.2903
rtoes 7.32949
lfemur -16.7997 0.559365 -2.24309
ltibia 27.9056
lfoot -8.01305 7.91092
ltoes -10.6787
685
root 2.57612 18.1314 23.6304 1.78962 6.07447 -11.576
lowerback 11.6613 -1.09073 -10.4836
upperback 1.90525 -2.97372 -5.1889
thorax -4.28491 -1.33241 0.855395
lowerneck -19.9205 0.907373 6.25169
upperneck 20.8901 -2.94829 9.03736
head 10.1242 0.236479 1.7458
rclavicle 2.22639e-014 4.45278e-014
rhumerus -23.5536 -26.7051 -1.74495
rradius 42.1293
rwrist -23.3253
rhand -28.8 -9.02386
rfingers 7.12502
rthumb -2.15856 -38.9927
lclavicle 2.22639e-014 4.45278e-014
lhumerus -35.2841 36.8233 24.3377
lradius 38.551
lwrist 11.1459
lhand -20.6844 -2.2214
lfingers 7.12502
lthumb 5.6791 27.6825
rfemur -2.7658 -8.09385 25.1744
rtibia 52.0683
rfoot 14.3185 -28.022
rtoes 7.47308
lfemur -16.5595 0.418393 -2.37783
ltibia 27.9115
lfoot -8.23956 7.94779
ltoes -10.7351
686
root 2.57812 18.1292 23.695 1.75407 6.20304 -11.4683
lowerback 11.7775 -1.16423 -10.8047
upperback 1.88146 -3.1365 -5.34897
thorax -4.35271 -1.40357 0.888075
lowerneck -19.6792 0.927614 6.27706
upperneck 20.8125 -2.95082 9.26842
head 10.0586 0.254015 1.81966
rclavicle -7.95139e-016 1.59028e-014
rhumerus -23.1778 -26.6413 -1.6779
rradius 41.7995
rwrist -23.2717
rhand -28.8331 -9.1589
rfingers 7.12502
rthumb -2.19051 -39.1274
lclavicle -7.95139e-016 1.59028e-014
lhumerus -35.7691 36.7555 24.1928
lradius 38.582
lwrist 11.3093
lhand -20.7062 -2.17187
lfingers 7.12502
lthumb 5.65802 27.7326
rfemur -3.04325 -8.12004 25.3145
rtibia 52.3456
rfoot 12.3884 -28.7905
rtoes 7.57996
lfemur -16.3433 0.275889 -2.49226
ltibia 27.9462
lfoot -8.47354 7.98953
ltoes -10.7879
687
root 2.57862 18.1269 23.759 1.71923 6.32695 -11.3771
lowerback 11.899 -1.23218 -11.1031
upperback 1.85604 -3.29103 -5.50368
thorax -4.42621 -1.47042 0.912924
lowerneck -19.4395 0.941456 6.2873
upperneck 20.7356 -2.95546 9.49312
head 9.99349 0.268268 1.89316
rclavicle 3.26007e-014 1.04958e-013
rhumerus -22.8131 -26.5904 -1.58372
rradius 41.4549
rwrist -23.2207
rhand -28.8719 -9.25683
rfingers 7.12502
rthumb -2.22797 -39.2249
lclavicle 3.26007e-014 1.04958e-013
lhumerus -36.2368 36.6992 24.0892
lradius 38.5946
lwrist 11.4536
lhand -20.7197 -2.13124
lfingers 7.12502
lthumb 5.64498 27.7736
rfemur -3.32707 -8.12519 25.4831
rtibia 52.5542
rfoot 10.4344 -29.5703
rtoes 7.62152
lfemur -16.1482 0.132806 -2.58266
ltibia 28.0087
lfoot -8.71355 8.03924
ltoes -10.8354
688
root 2.57767 18.1244 23.8225 1.68421 6.44222 -11.3042
lowerback 12.0207 -1.29251 -11.377
upperback 1.83279 -3.43306 -5.65228
thorax -4.49912 -1.53133 0.929022
lowerneck -19.2106 0.950673 6.28922
upperneck 20.6593 -2.96132 9.70441
head 9.93024 0.279695 1.96298
rclavicle 1.59028e-015 -1.04958e-013
rhumerus -22.4725 -26.5442 -1.45967
rradius 41.1119
rwrist -23.1668
rhand -28.9017 -9.25965
rfingers 7.12502
rthumb -2.25679 -39.2275
lclavicle 1.59028e-015 -1.04958e-013
lhumerus -36.6793 36.6506 24.036
lradius 38.5938
lwrist 11.5757
lhand -20.7262 -2.09857
lfingers 7.12502
lthumb 5.63868 27.8064
rfemur -3.61652 -8.10376 25.6789
rtibia 52.6891
rfoot 8.492 -30.3194
rtoes 7.58226
lfemur -15.9701 -0.0105814 -2.64739
ltibia 28.0969
lfoot -8.95746 8.10124
ltoes -10.8801
